# xmcd
#
# Track frame offsets: 
#        150
#        22355
#        44940
#        63725
#        88577
#        112402
#        133120
#        154542
#        172967
#        195595
#        217347
#        237277
#
# Disc length: 3385 seconds
#
# Revision: 6
# Processed by: cddbd v1.5.2PL0 Copyright (c) Steve Scherf et al.
# Submitted via: ExactAudioCopy v0.95a5
#
DISCID=be0d370c
DTITLE=After 7 - k-Reflections
DYEAR=1995
DGENRE=R&B
TTITLE0=`Til You Do Me Right
TTITLE1=Cryin For It
TTITLE2=Save It Up
TTITLE3=Damn Thing Called Love
TTITLE4=How Did He Love You
TTITLE5=What' U R 2 Me
TTITLE6=How Do You Tell The One
TTITLE7=Sprung On It
TTITLE8=How Could You Leave
TTITLE9=Givin Up This Good Thing
TTITLE10=I Like It Like That
TTITLE11=Honey (Oh How I Need You)
EXTD=
EXTT0=
EXTT1=
EXTT2=
EXTT3=
EXTT4=
EXTT5=
EXTT6=
EXTT7=
EXTT8=
EXTT9=
EXTT10=
EXTT11=
PLAYORDER=
